<svg width="211" height="473" viewBox="0 0 211 473" fill="none" xmlns="http://www.w3.org/2000/svg">
<path d="M0 0H2.70492V2.70492H0V0Z" fill="#666666"/>
<path d="M29.7541 0H32.459V2.70492H29.7541V0Z" fill="#666666"/>
<path d="M59.5082 0H62.2131V2.70492H59.5082V0Z" fill="#666666"/>
<path d="M89.2623 0H91.9672V2.70492H89.2623V0Z" fill="#666666"/>
<path d="M119.016 0H121.721V2.70492H119.016V0Z" fill="#666666"/>
<path d="M148.77 0H151.475V2.70492H148.77V0Z" fill="#666666"/>
<path d="M178.525 0H181.229V2.70492H178.525V0Z" fill="#666666"/>
<path d="M208.279 0H210.984V2.70492H208.279V0Z" fill="#666666"/>
<path d="M0 42.7049H2.70492V45.4098H0V42.7049Z" fill="#666666"/>
<path d="M29.7541 42.7049H32.459V45.4098H29.7541V42.7049Z" fill="#666666"/>
<path d="M59.5082 42.7049H62.2131V45.4098H59.5082V42.7049Z" fill="#666666"/>
<path d="M89.2623 42.7049H91.9672V45.4098H89.2623V42.7049Z" fill="#666666"/>
<path d="M119.016 42.7049H121.721V45.4098H119.016V42.7049Z" fill="#666666"/>
<path d="M148.77 42.7049H151.475V45.4098H148.77V42.7049Z" fill="#666666"/>
<path d="M178.525 42.7049H181.229V45.4098H178.525V42.7049Z" fill="#666666"/>
<path d="M208.279 42.7049H210.984V45.4098H208.279V42.7049Z" fill="#666666"/>
<path d="M0 85.4098H2.70492V88.1147H0V85.4098Z" fill="#666666"/>
<path d="M29.7541 85.4098H32.459V88.1147H29.7541V85.4098Z" fill="#666666"/>
<path d="M59.5082 85.4098H62.2131V88.1147H59.5082V85.4098Z" fill="#666666"/>
<path d="M89.2623 85.4098H91.9672V88.1147H89.2623V85.4098Z" fill="#666666"/>
<path d="M119.016 85.4098H121.721V88.1147H119.016V85.4098Z" fill="#666666"/>
<path d="M148.77 85.4098H151.475V88.1147H148.77V85.4098Z" fill="#666666"/>
<path d="M178.525 85.4098H181.229V88.1147H178.525V85.4098Z" fill="#666666"/>
<path d="M208.279 85.4098H210.984V88.1147H208.279V85.4098Z" fill="#666666"/>
<path d="M0 128.115H2.70492V130.82H0V128.115Z" fill="#666666"/>
<path d="M29.7541 128.115H32.459V130.82H29.7541V128.115Z" fill="#666666"/>
<path d="M59.5082 128.115H62.2131V130.82H59.5082V128.115Z" fill="#666666"/>
<path d="M89.2623 128.115H91.9672V130.82H89.2623V128.115Z" fill="#666666"/>
<path d="M119.016 128.115H121.721V130.82H119.016V128.115Z" fill="#666666"/>
<path d="M148.77 128.115H151.475V130.82H148.77V128.115Z" fill="#666666"/>
<path d="M178.525 128.115H181.229V130.82H178.525V128.115Z" fill="#666666"/>
<path d="M208.279 128.115H210.984V130.82H208.279V128.115Z" fill="#666666"/>
<path d="M0 170.82H2.70492V173.525H0V170.82Z" fill="#666666"/>
<path d="M29.7541 170.82H32.459V173.525H29.7541V170.82Z" fill="#666666"/>
<path d="M59.5082 170.82H62.2131V173.525H59.5082V170.82Z" fill="#666666"/>
<path d="M89.2623 170.82H91.9672V173.525H89.2623V170.82Z" fill="#666666"/>
<path d="M119.016 170.82H121.721V173.525H119.016V170.82Z" fill="#666666"/>
<path d="M148.77 170.82H151.475V173.525H148.77V170.82Z" fill="#666666"/>
<path d="M178.525 170.82H181.229V173.525H178.525V170.82Z" fill="#666666"/>
<path d="M208.279 170.82H210.984V173.525H208.279V170.82Z" fill="#666666"/>
<path d="M0 213.525H2.70492V216.23H0V213.525Z" fill="#666666"/>
<path d="M29.7541 213.525H32.459V216.23H29.7541V213.525Z" fill="#666666"/>
<path d="M59.5082 213.525H62.2131V216.23H59.5082V213.525Z" fill="#666666"/>
<path d="M89.2623 213.525H91.9672V216.23H89.2623V213.525Z" fill="#666666"/>
<path d="M119.016 213.525H121.721V216.23H119.016V213.525Z" fill="#666666"/>
<path d="M148.77 213.525H151.475V216.23H148.77V213.525Z" fill="#666666"/>
<path d="M178.525 213.525H181.229V216.23H178.525V213.525Z" fill="#666666"/>
<path d="M208.279 213.525H210.984V216.23H208.279V213.525Z" fill="#666666"/>
<path d="M0 256.23H2.70492V258.934H0V256.23Z" fill="#666666"/>
<path d="M29.7541 256.229H32.459V258.934H29.7541V256.229Z" fill="#666666"/>
<path d="M59.5082 256.229H62.2131V258.934H59.5082V256.229Z" fill="#666666"/>
<path d="M89.2623 256.229H91.9672V258.934H89.2623V256.229Z" fill="#666666"/>
<path d="M119.016 256.229H121.721V258.934H119.016V256.229Z" fill="#666666"/>
<path d="M148.77 256.229H151.475V258.934H148.77V256.229Z" fill="#666666"/>
<path d="M178.525 256.229H181.229V258.934H178.525V256.229Z" fill="#666666"/>
<path d="M208.279 256.229H210.984V258.934H208.279V256.229Z" fill="#666666"/>
<path d="M0 298.934H2.70492V301.639H0V298.934Z" fill="#666666"/>
<path d="M29.7541 298.934H32.459V301.639H29.7541V298.934Z" fill="#666666"/>
<path d="M59.5082 298.934H62.2131V301.639H59.5082V298.934Z" fill="#666666"/>
<path d="M89.2623 298.934H91.9672V301.639H89.2623V298.934Z" fill="#666666"/>
<path d="M119.016 298.934H121.721V301.639H119.016V298.934Z" fill="#666666"/>
<path d="M148.77 298.934H151.475V301.639H148.77V298.934Z" fill="#666666"/>
<path d="M178.525 298.934H181.229V301.639H178.525V298.934Z" fill="#666666"/>
<path d="M208.279 298.934H210.984V301.639H208.279V298.934Z" fill="#666666"/>
<path d="M0 341.639H2.70492V344.344H0V341.639Z" fill="#666666"/>
<path d="M29.7541 341.639H32.459V344.344H29.7541V341.639Z" fill="#666666"/>
<path d="M59.5082 341.639H62.2131V344.344H59.5082V341.639Z" fill="#666666"/>
<path d="M89.2623 341.639H91.9672V344.344H89.2623V341.639Z" fill="#666666"/>
<path d="M119.016 341.639H121.721V344.344H119.016V341.639Z" fill="#666666"/>
<path d="M148.77 341.639H151.475V344.344H148.77V341.639Z" fill="#666666"/>
<path d="M178.525 341.639H181.229V344.344H178.525V341.639Z" fill="#666666"/>
<path d="M208.279 341.639H210.984V344.344H208.279V341.639Z" fill="#666666"/>
<path d="M0 384.344H2.70492V387.049H0V384.344Z" fill="#666666"/>
<path d="M29.7541 384.344H32.459V387.049H29.7541V384.344Z" fill="#666666"/>
<path d="M59.5082 384.344H62.2131V387.049H59.5082V384.344Z" fill="#666666"/>
<path d="M89.2623 384.344H91.9672V387.049H89.2623V384.344Z" fill="#666666"/>
<path d="M119.016 384.344H121.721V387.049H119.016V384.344Z" fill="#666666"/>
<path d="M148.77 384.344H151.475V387.049H148.77V384.344Z" fill="#666666"/>
<path d="M178.525 384.344H181.229V387.049H178.525V384.344Z" fill="#666666"/>
<path d="M208.279 384.344H210.984V387.049H208.279V384.344Z" fill="#666666"/>
<path d="M0 427.049H2.70492V429.754H0V427.049Z" fill="#666666"/>
<path d="M29.7541 427.049H32.459V429.754H29.7541V427.049Z" fill="#666666"/>
<path d="M59.5082 427.049H62.2131V429.754H59.5082V427.049Z" fill="#666666"/>
<path d="M89.2623 427.049H91.9672V429.754H89.2623V427.049Z" fill="#666666"/>
<path d="M119.016 427.049H121.721V429.754H119.016V427.049Z" fill="#666666"/>
<path d="M148.77 427.049H151.475V429.754H148.77V427.049Z" fill="#666666"/>
<path d="M178.525 427.049H181.229V429.754H178.525V427.049Z" fill="#666666"/>
<path d="M208.279 427.049H210.984V429.754H208.279V427.049Z" fill="#666666"/>
<path d="M0 469.754H2.70492V472.459H0V469.754Z" fill="#666666"/>
<path d="M29.7541 469.754H32.459V472.459H29.7541V469.754Z" fill="#666666"/>
<path d="M59.5082 469.754H62.2131V472.459H59.5082V469.754Z" fill="#666666"/>
<path d="M89.2623 469.754H91.9672V472.459H89.2623V469.754Z" fill="#666666"/>
<path d="M119.016 469.754H121.721V472.459H119.016V469.754Z" fill="#666666"/>
<path d="M148.77 469.754H151.475V472.459H148.77V469.754Z" fill="#666666"/>
<path d="M178.525 469.754H181.229V472.459H178.525V469.754Z" fill="#666666"/>
<path d="M208.279 469.754H210.984V472.459H208.279V469.754Z" fill="#666666"/>
</svg>
