<svg xmlns="http://www.w3.org/2000/svg" version="1.1" xmlns:xlink="http://www.w3.org/1999/xlink" width="512" height="512" x="0" y="0" viewBox="0 0 512 512" style="enable-background:new 0 0 512 512" xml:space="preserve" class=""><g><path d="M314.82 390.16c23.057-26.782 46.684-55.588 66.564-85.283 32.076-47.913 47.668-88.417 47.668-123.825C429.052 85.631 351.421 8 256 8S82.948 85.631 82.948 181.052c0 35.408 15.593 75.912 47.669 123.825 19.879 29.695 43.507 58.501 66.563 85.283-61.554 6.146-126.551 23.625-126.551 55.513 0 17.593 19.976 32.56 57.767 43.282C162.588 498.657 207.905 504 256 504s93.412-5.343 127.604-15.044c37.791-10.723 57.767-25.689 57.767-43.282 0-31.888-64.997-49.368-126.551-55.514zM98.948 181.052C98.948 94.454 169.401 24 256 24s157.052 70.453 157.052 157.052c0 73.091-78.106 162.104-135.137 227.1-7.69 8.764-15.053 17.155-21.915 25.14-6.861-7.984-14.224-16.375-21.914-25.139-57.031-64.995-135.138-154.01-135.138-227.101zm131.64 247.382c6.827 7.802 13.318 15.273 19.303 22.35a8 8 0 0 0 12.216 0c5.985-7.077 12.477-14.548 19.304-22.35 19.525 1.216 37.49 3.866 50.931 7.531 15.899 4.335 20.167 8.499 21.13 9.732-1.463 1.972-8.576 7.037-28.162 11.421-18.921 4.235-43.536 6.568-69.311 6.568s-50.391-2.333-69.312-6.568c-19.584-4.384-26.698-9.448-28.161-11.421.962-1.233 5.23-5.397 21.129-9.732 13.443-3.665 31.408-6.314 50.933-7.531zm148.649 45.129C346.426 482.873 302.66 488 256 488s-90.426-5.127-123.237-14.437c-34.052-9.662-46.134-21.062-46.134-27.89 0-12.708 39.275-34.156 123.488-40.601a5378.14 5378.14 0 0 0 7.309 8.35c-17.534 1.664-33.308 4.454-45.47 8.105-19.93 5.982-29.618 13.881-29.618 24.146 0 11.469 12.114 20.026 37.035 26.162 20.565 5.063 47.778 7.852 76.626 7.852s56.062-2.788 76.626-7.852c24.921-6.136 37.035-14.693 37.035-26.162 0-10.265-9.688-18.163-29.618-24.146-12.161-3.651-27.935-6.442-45.47-8.105a6500.02 6500.02 0 0 0 7.309-8.35c84.212 6.445 123.488 27.893 123.488 40.601.002 6.827-12.081 18.228-46.132 27.89zm17.828-292.511c0-77.783-63.281-141.064-141.064-141.064s-141.064 63.281-141.064 141.064S178.217 322.117 256 322.117s141.065-63.282 141.065-141.065zm-266.129 0c0-68.961 56.104-125.064 125.064-125.064s125.064 56.104 125.064 125.064S324.961 306.117 256 306.117s-125.064-56.104-125.064-125.065zM256 240.063c1.874 0 4.746.887 9.96 2.495l.875.27 14.977 34.775a7.999 7.999 0 0 0 14.145 1.053l11.818-19.044 21.956 4.497a8 8 0 0 0 8.954-11.001l-16.619-38.587c9.732-4.575 15.378-14.667 14.093-25.423-.219-1.835-.424-3.468-.608-4.934-.679-5.414-1.053-8.396-.728-10.241.326-1.846 1.697-4.52 4.187-9.375a777.076 777.076 0 0 0 2.259-4.429c5.022-9.936 2.943-21.729-5.174-29.348-1.347-1.265-2.554-2.384-3.637-3.389-4.001-3.712-6.205-5.756-7.142-7.378-.937-1.623-1.605-4.553-2.819-9.872-.329-1.441-.695-3.046-1.116-4.845-2.539-10.84-11.713-18.538-22.828-19.155-1.846-.103-3.489-.185-4.965-.259-5.45-.271-8.452-.421-10.213-1.062-1.76-.642-4.157-2.456-8.506-5.752-1.178-.892-2.489-1.886-3.968-2.992-8.913-6.674-20.889-6.674-29.8 0-1.479 1.106-2.79 2.101-3.968 2.992-4.35 3.296-6.746 5.11-8.507 5.752-1.761.641-4.763.79-10.212 1.062-1.476.074-3.12.156-4.965.259-11.115.617-20.29 8.315-22.829 19.155a801.87 801.87 0 0 0-1.116 4.843c-1.213 5.32-1.882 8.251-2.819 9.873-.937 1.623-3.14 3.667-7.141 7.378-1.083 1.006-2.29 2.125-3.637 3.39-8.117 7.617-10.197 19.411-5.174 29.348.833 1.648 1.584 3.112 2.258 4.427 2.49 4.856 3.862 7.531 4.187 9.376s-.049 4.827-.728 10.24c-.184 1.467-.389 3.1-.608 4.936-1.321 11.054 4.667 21.425 14.9 25.807 1.138.488 2.188.933 3.171 1.348l-20.501 44.034a8 8 0 0 0 8.629 11.258l22.078-3.858 11.26 19.378a7.999 7.999 0 0 0 14.17-.643l21.068-45.251c2.474-.718 4.153-1.108 5.383-1.108zm49.524 2.757a7.993 7.993 0 0 0-8.403 3.619l-6.676 10.758-5.627-13.067c5.563-1.601 10.525-5.149 13.899-10.308 1.012-1.547 1.904-2.93 2.706-4.171 2.96-4.584 4.591-7.109 6.026-8.313.03-.025.069-.05.1-.075l10.378 24.097zm-118.296-85.572a786.435 786.435 0 0 1-2.216-4.345c-1.818-3.599-1.095-7.705 1.844-10.464 1.323-1.241 2.507-2.339 3.57-3.325 10.629-9.861 11.452-11.287 14.677-25.423.323-1.413.682-2.987 1.095-4.752.919-3.926 4.114-6.606 8.14-6.83 1.811-.101 3.424-.181 4.872-.253 14.48-.722 16.027-1.285 27.584-10.041 1.156-.875 2.442-1.85 3.895-2.937 3.227-2.416 7.396-2.416 10.623 0 1.452 1.087 2.738 2.062 3.894 2.937 11.558 8.756 13.104 9.319 27.585 10.041 1.448.072 3.061.152 4.873.253 4.024.224 7.219 2.904 8.138 6.83.414 1.766.773 3.34 1.095 4.754 3.225 14.135 4.048 15.561 14.678 25.421 1.063.986 2.247 2.084 3.569 3.325 2.939 2.759 3.663 6.865 1.844 10.463a753.202 753.202 0 0 1-2.217 4.347c-6.616 12.901-6.901 14.522-5.097 28.908.181 1.438.381 3.041.597 4.841.479 4.003-1.606 7.614-5.312 9.201a731.122 731.122 0 0 1-4.491 1.903c-13.361 5.631-14.622 6.689-22.487 18.87-.787 1.218-1.663 2.574-2.655 4.093-2.206 3.373-6.125 4.802-9.983 3.633-1.736-.524-3.279-1-4.664-1.428-6.927-2.138-10.803-3.206-14.678-3.206s-7.75 1.068-14.678 3.206c-1.385.428-2.928.903-4.664 1.428-3.859 1.169-7.777-.259-9.983-3.634a763.014 763.014 0 0 1-2.655-4.092c-7.865-12.181-9.126-13.239-22.488-18.87a699.734 699.734 0 0 1-4.492-1.904c-3.705-1.586-5.79-5.197-5.312-9.2.215-1.801.417-3.403.597-4.842 1.804-14.386 1.518-16.007-5.098-28.908zm34.285 108.527-6.361-10.947a8.004 8.004 0 0 0-8.294-3.861l-12.472 2.18 13.119-28.177c.852 1.247 1.844 2.778 3.074 4.682.802 1.242 1.694 2.624 2.706 4.17 4.172 6.381 10.765 10.31 17.928 11.12zM256 209.827c28.533 0 51.746-23.213 51.746-51.745 0-28.533-23.213-51.746-51.746-51.746s-51.746 23.213-51.746 51.746c0 28.532 23.214 51.745 51.746 51.745zm0-87.492c19.71 0 35.746 16.035 35.746 35.746 0 19.71-16.035 35.745-35.746 35.745s-35.746-16.035-35.746-35.745S236.29 122.335 256 122.335z" fill="#ffffff" opacity="1" data-original="#000000" class=""></path></g></svg>