<svg xmlns="http://www.w3.org/2000/svg" version="1.1" xmlns:xlink="http://www.w3.org/1999/xlink" width="512" height="512" x="0" y="0" viewBox="0 0 512 512" style="enable-background:new 0 0 512 512" xml:space="preserve"><g><path d="M476.605 95.091H167.707l-30.472-52.778c-5.516-9.554-14.119-15.889-24.881-18.318-10.763-2.433-21.253-.408-30.337 5.848L13.803 76.808a11.997 11.997 0 0 0-4.739 6.607c-8.318 29.309-6.47 66.588 5.493 110.801 10.693 39.52 29.073 82.452 53.152 124.157 41.179 71.323 108.857 153.507 175.312 170.267a12.003 12.003 0 0 0 8.092-.801l74.779-35.592c9.962-4.741 16.959-12.815 20.234-23.351s2.091-21.153-3.425-30.705l-10.752-18.623h144.656c17.312 0 31.395-14.083 31.395-31.395V126.485c0-17.31-14.083-31.394-31.395-31.394zm-297.535 24h278.203l-151.254 103.69-127.405-87.341a38.882 38.882 0 0 0 .456-16.349zm144.138 302.68c-1.288 4.144-3.713 6.941-7.631 8.807l-70.733 33.666c-48.172-14.619-109.024-75.9-156.351-157.87-47.379-82.062-69.097-162.77-57.398-212.334l64.532-44.431c3.572-2.46 7.21-3.161 11.44-2.205 4.231.956 7.213 3.15 9.382 6.908l37.404 64.785c3.914 6.779 1.659 15.605-5.027 19.676L107.396 164a12.003 12.003 0 0 0-5.512 12.673c11.89 57.668 62.786 145.823 106.783 184.953a11.997 11.997 0 0 0 13.73 1.562l42.562-23.267c6.869-3.753 15.641-1.295 19.554 5.484l37.404 64.786c2.169 3.757 2.579 7.437 1.291 11.58zm153.397-66.203H318.093l-12.795-22.162c-10.379-17.976-33.639-24.5-51.851-14.543l-34.936 19.098c-36.745-36.267-78.176-108.025-91.211-157.981l34.007-20.706a38.033 38.033 0 0 0 4.7-3.378l133.226 91.332c2.045 1.402 4.415 2.103 6.785 2.103s4.741-.701 6.785-2.103L484 129.866v218.308c0 4.008-3.387 7.394-7.395 7.394z" fill="#ffffff" opacity="1" data-original="#000000"></path></g></svg>