<svg xmlns="http://www.w3.org/2000/svg" version="1.1" xmlns:xlink="http://www.w3.org/1999/xlink" width="512" height="512" x="0" y="0" viewBox="0 0 510 510" style="enable-background:new 0 0 512 512" xml:space="preserve" fill-rule="evenodd"><g><path d="M238.736 382.244a189.358 189.358 0 0 1-41.768 4.642C92.317 386.886 7 301.567 7 196.968 7 92.318 92.318 7 196.968 7c104.599 0 189.918 85.317 189.918 189.968 0 26.951-5.664 52.623-15.861 75.885h28.427c15.15 0 27.547 12.398 27.547 27.547v11.524h58.639c9.559 0 17.362 7.779 17.362 17.338v44.504c0 9.996-4.33 18.02-11.126 24.53v78.451c0 14.412-11.807 26.253-26.253 26.253H274.996c-14.446 0-26.253-11.841-26.253-26.253v-78.451c-4.757-4.557-8.306-9.855-10.007-16.052zm114.661-109.391c11.2-22.952 17.489-48.708 17.489-75.885C370.886 101.133 292.756 23 196.968 23 101.132 23 23 101.132 23 196.968c0 95.788 78.133 173.918 173.968 173.918 13.989 0 27.601-1.666 40.649-4.81v-25.027c-12.927 3.642-26.561 5.592-40.649 5.592-82.687 0-149.723-67.038-149.723-149.673 0-82.687 67.036-149.723 149.723-149.723 82.635 0 149.673 67.036 149.673 149.723 0 46.184-20.938 87.497-53.838 114.956h20.814V300.4c0-15.149 12.398-27.547 27.547-27.547zm57.602 39.071V300.4c0-6.35-5.196-11.547-11.547-11.547h-58.288c-6.35 0-11.547 5.197-11.547 11.547v11.524zm16.419 16H313.199v22.414a3.724 3.724 0 0 0 3.714 3.714h106.791a3.725 3.725 0 0 0 3.714-3.714zm48.456 81.143c-16.703 7.67-44.365 12.724-74.85 14.695-1.994 15.192-14.975 26.901-30.716 26.901-15.734 0-28.71-11.7-30.713-26.882-30.454-1.952-58.105-6.996-74.852-14.707v67.673c0 5.628 4.611 10.253 10.253 10.253h190.625c5.642 0 10.253-4.625 10.253-10.253zm-76.92-1.2c32.096-1.936 60.968-7.002 74.968-15.853 1.711-1.088 3.345-2.231 4.855-3.479l.021-.018c4.672-3.835 8.202-8.471 8.202-14.751v-44.504c0-.744-.618-1.338-1.362-1.338h-42.22v22.414c0 10.847-8.867 19.714-19.714 19.714H316.913c-10.847 0-19.714-8.867-19.714-19.714v-22.414h-42.22c-.744 0-1.362.594-1.362 1.338v44.504c0 6.28 3.529 10.916 8.201 14.751l.022.018c1.51 1.249 3.145 2.392 4.856 3.48 14.068 8.904 42.916 13.955 74.959 15.87 4.635-11.241 15.694-19.185 28.653-19.185 12.953 0 24.007 7.936 28.646 19.167zm-160.547-83.776c2.211-7.042 8.813-12.167 16.572-12.167h10.229c39.173-23.315 65.433-66.08 65.433-114.956 0-73.85-59.87-133.723-133.673-133.723-73.85 0-133.723 59.873-133.723 133.723 0 73.803 59.873 133.673 133.723 133.673 14.463 0 28.391-2.298 41.439-6.55zm-33.439-14.338c0 4.416-3.585 8-8 8-4.416 0-8-3.584-8-8v-12.197c0-4.415 3.584-8 8-8 4.415 0 8 3.585 8 8zm104.785-120.785c4.416 0 8 3.584 8 8 0 4.415-3.584 8-8 8h-12.197c-4.415 0-8-3.585-8-8 0-4.416 3.585-8 8-8zm-225.62 16c-4.415 0-8-3.585-8-8 0-4.416 3.585-8 8-8h12.246c4.416 0 8 3.584 8 8 0 4.415-3.584 8-8 8zm104.835-61.628c0-4.415 3.584-8 8-8 4.415 0 8 3.585 8 8v49.009l31.751 18.332c3.824 2.207 5.136 7.104 2.929 10.928a8.004 8.004 0 0 1-10.929 2.928l-35.751-20.641a8 8 0 0 1-4-6.928zm0-59.207c0-4.415 3.584-8 8-8 4.415 0 8 3.585 8 8v12.246c0 4.416-3.585 8-8 8-4.416 0-8-3.584-8-8zm82.093 27.379a8.003 8.003 0 0 1 11.313 0 8.001 8.001 0 0 1 0 11.313l-8.641 8.642c-3.122 3.122-8.192 3.122-11.314 0s-3.122-8.192 0-11.314zm11.313 159.549a8.001 8.001 0 0 1 0 11.313 8.001 8.001 0 0 1-11.313 0l-8.642-8.641c-3.122-3.122-3.122-8.192 0-11.314s8.192-3.122 11.314 0zm-159.549 11.313a8.001 8.001 0 0 1-11.313 0 8.003 8.003 0 0 1 0-11.313l8.641-8.642c3.122-3.122 8.192-3.122 11.314 0s3.122 8.192 0 11.314zm-11.313-159.549c-3.122-3.122-3.122-8.191 0-11.313s8.191-3.122 11.313 0l8.642 8.641c3.122 3.122 3.122 8.192 0 11.314s-8.192 3.122-11.314 0zm243.815 296.857c0 8.28 6.701 14.981 14.981 14.981 8.281 0 14.982-6.701 14.982-14.981 0-8.25-6.686-14.982-14.982-14.982-8.295 0-14.981 6.732-14.981 14.982z" fill="#ffffff" opacity="1" data-original="#000000"></path></g></svg>